<svg width="710" height="115" viewBox="0 0 710 115" fill="none" xmlns="http://www.w3.org/2000/svg">
<rect y="25" width="710" height="65" rx="32.5" fill="#3B332D"/>
<path d="M254.206 80.75C248.019 80.75 242.988 79.3438 239.113 76.5312C238.331 71.4375 238.144 67.1094 238.55 63.5469H243.378L248.909 75.3125L244.878 72.1719C248.253 74.0781 251.722 75.0312 255.284 75.0312C257.722 75.0312 259.597 74.5469 260.909 73.5781C262.222 72.6094 262.878 71.2344 262.878 69.4531C262.878 67.9531 262.363 66.7188 261.331 65.75C260.3 64.75 258.628 63.8906 256.316 63.1719L250.878 61.4844C242.691 58.9531 238.597 54.2969 238.597 47.5156C238.597 43.0469 240.206 39.4844 243.425 36.8281C246.644 34.1719 250.972 32.8438 256.409 32.8438C261.378 32.8438 265.878 33.875 269.909 35.9375C270.534 40.1875 270.722 44.0469 270.472 47.5156H265.456L260.863 37.9531L265.738 41.4219C262.081 39.5156 258.613 38.5625 255.331 38.5625C250.925 38.5625 248.722 40.2969 248.722 43.7656C248.722 45.2969 249.269 46.5781 250.363 47.6094C251.488 48.6406 253.284 49.5469 255.753 50.3281L261.191 52.0156C269.191 54.5156 273.191 59.0625 273.191 65.6562C273.191 70.2812 271.472 73.9531 268.034 76.6719C264.628 79.3906 260.019 80.75 254.206 80.75ZM319.494 80L304.213 58.8594V55.3438L320.759 37.1562L320.431 39.0781L313.869 37.8125L314.197 33.5938H331.963L331.634 37.7188C331.041 38.0312 330.259 38.3438 329.291 38.6562C328.353 38.9688 327.291 39.25 326.103 39.5L329.806 37.4375L311.291 57.3125L314.103 53.7031L330.931 75.8281L326.713 74.4219L332.994 75.5938L332.666 80H319.494ZM291.65 79.2969V34.3438H302.9V79.2969H291.65ZM297.603 60.2188V54.125H309.884V60.2188H297.603ZM287.244 80L287.572 75.875C289.072 75.2188 291.025 74.6094 293.431 74.0469L291.65 78.8281V71.4688H302.9V78.8281L301.259 74.4219L307.494 75.7812L307.166 80H287.244ZM307.306 33.5938L306.978 37.7188C305.478 38.375 303.525 38.9844 301.119 39.5469L302.9 34.7656V42.125H291.65V34.7656L293.291 39.1719L287.056 37.8125L287.384 33.5938H307.306ZM349.062 79.2969V34.25H360.312V79.2969H349.062ZM344.656 80L344.984 75.875C346.484 75.2188 348.438 74.6094 350.844 74.0469L349.062 78.8281V71.4688H360.312V78.8281L358.672 74.4219L364.906 75.7812L364.578 80H344.656ZM364.719 33.5938L364.391 37.7188C362.891 38.375 360.938 38.9844 358.531 39.5469L360.312 34.7656V42.125H349.062V34.7656L350.703 39.1719L344.469 37.8125L344.797 33.5938H364.719ZM383.319 79.2969V34.25H394.569V79.2969H383.319ZM389.225 80V73.9062H412.897L414.631 80H389.225ZM414.631 80L405.209 76.1094L412.428 63.3594H416.834C416.834 69.2969 416.1 74.8438 414.631 80ZM400.85 33.5938L400.522 37.7188C399.647 38 398.538 38.2969 397.194 38.6094C395.85 38.8906 394.381 39.1562 392.788 39.4062L394.569 34.7656V42.125H383.319V34.7656L384.959 39.1719L378.725 37.8125L379.053 33.5938H400.85ZM378.913 80L379.241 75.875C380.741 75.2188 382.694 74.6094 385.1 74.0469L383.319 78.8281V71.4688H394.569V78.8281L392.928 74.4219L399.163 75.7812L398.834 80H378.913ZM434.637 79.2969V34.25H445.887V79.2969H434.637ZM440.544 80V73.9062H464.216L465.95 80H440.544ZM465.95 80L456.528 76.1094L463.747 63.3594H468.153C468.153 69.2969 467.419 74.8438 465.95 80ZM452.169 33.5938L451.841 37.7188C450.966 38 449.856 38.2969 448.512 38.6094C447.169 38.8906 445.7 39.1562 444.106 39.4062L445.887 34.7656V42.125H434.637V34.7656L436.278 39.1719L430.044 37.8125L430.372 33.5938H452.169ZM430.231 80L430.559 75.875C432.059 75.2188 434.012 74.6094 436.419 74.0469L434.637 78.8281V71.4688H445.887V78.8281L444.247 74.4219L450.481 75.7812L450.153 80H430.231Z" fill="#F0ECEA"/>
<circle cx="47" cy="58" r="8" fill="#F0ECEA"/>
<circle cx="673" cy="58" r="8" fill="#F0ECEA"/>
</svg>
