<svg width="466" height="213" viewBox="0 0 466 213" fill="none" xmlns="http://www.w3.org/2000/svg">
<line y1="45" x2="466" y2="45" stroke="#3C2518" stroke-width="2"/>
<line y1="1" x2="466" y2="1" stroke="#3C2518" stroke-width="2"/>
<path d="M391.439 83.0586L388.783 73.957L389.252 74.2598L387.924 73.9766L387.973 73.332H391.703L391.654 73.9766C391.348 74.1068 390.932 74.2174 390.404 74.3086L390.521 74.0156L392.709 82.248L392.904 83.0098C392.702 83.0423 392.465 83.0618 392.191 83.0684C391.924 83.0814 391.674 83.0781 391.439 83.0586ZM392.904 83.0098L391.908 82.8633L394.516 73.5566L395.6 73.5664L392.904 83.0098ZM397.016 83.0586L394.574 74.1816L394.516 73.5566C394.698 73.5241 394.923 73.5046 395.189 73.498C395.456 73.485 395.694 73.485 395.902 73.498L398.266 82.248L398.48 83.0098C398.279 83.0423 398.041 83.0618 397.768 83.0684C397.494 83.0814 397.243 83.0781 397.016 83.0586ZM398.48 83.0098L397.484 82.8633L399.916 73.9668L400.023 74.2598L398.715 73.9766L398.764 73.332H401.908L401.859 73.957C401.716 74.0352 401.544 74.1068 401.342 74.1719C401.14 74.2305 400.922 74.2793 400.688 74.3184L401.107 73.9766L398.48 83.0098ZM405.58 83.1562C404.402 83.1562 403.493 82.8372 402.855 82.1992C402.217 81.5612 401.898 80.6497 401.898 79.4648C401.898 78.2604 402.211 77.3066 402.836 76.6035C403.461 75.8939 404.304 75.5391 405.365 75.5391C406.316 75.5391 407.048 75.8385 407.562 76.4375C408.077 77.0299 408.334 77.8828 408.334 78.9961C408.334 79.0938 408.331 79.1914 408.324 79.2891C408.318 79.3867 408.308 79.4811 408.295 79.5723L406.654 79.2598C406.654 78.2637 406.534 77.5443 406.293 77.1016C406.059 76.6589 405.674 76.4375 405.141 76.4375C404.099 76.4375 403.578 77.2611 403.578 78.9082C403.578 80.985 404.408 82.0234 406.068 82.0234C406.719 82.0234 407.4 81.89 408.109 81.623L408.041 82.541C407.735 82.7363 407.367 82.8893 406.938 83C406.514 83.1042 406.062 83.1562 405.58 83.1562ZM402.533 79.5723V78.7715H408.139L408.295 79.5723H402.533ZM412.865 83.1758C411.876 83.1758 411.186 82.8698 410.795 82.2578L411.107 81.5254C411.687 82.0137 412.309 82.2578 412.973 82.2578C413.611 82.2578 414.099 82.0169 414.438 81.5352C414.776 81.0469 414.945 80.3535 414.945 79.4551C414.945 78.5632 414.776 77.8763 414.438 77.3945C414.105 76.9128 413.63 76.6719 413.012 76.6719C412.419 76.6719 411.811 76.916 411.186 77.4043L411 76.9844C411.807 76.0208 412.712 75.5391 413.715 75.5391C414.607 75.5391 415.313 75.8613 415.834 76.5059C416.361 77.1504 416.625 78.0195 416.625 79.1133C416.625 80.3503 416.283 81.3366 415.6 82.0723C414.923 82.8079 414.011 83.1758 412.865 83.1758ZM410.062 83L410.121 81.5938V72.5508L411.684 72.9414V82.2578L411.156 82.6094C411.033 82.7591 410.889 82.8893 410.727 83H410.062ZM410.121 74.2695V73.0488L410.268 73.3906L408.949 72.873L408.988 72.4824C409.6 72.2611 410.303 72.1341 411.098 72.1016H411.684V73.7812L410.121 74.2695ZM422.992 83V82.0234H425.355C426.247 82.0234 426.931 81.6914 427.406 81.0273C427.888 80.3568 428.129 79.3997 428.129 78.1562C428.129 75.5911 427.032 74.3086 424.838 74.3086H422.992V73.332H424.926C426.56 73.332 427.813 73.7357 428.686 74.543C429.564 75.3503 430.004 76.5026 430.004 78C430.004 79.0156 429.805 79.8978 429.408 80.6465C429.011 81.3952 428.451 81.9746 427.729 82.3848C427.006 82.7949 426.15 83 425.16 83H422.992ZM422.152 82.8535V73.4688H423.793V82.8535H422.152ZM421.059 83L421.107 82.375C421.446 82.2383 421.859 82.1113 422.348 81.9941L422.152 82.7266V81.3594H423.793V82.7266L423.627 82.0723L424.926 82.3555L424.877 83H421.059ZM424.887 73.332L424.838 73.957C424.499 74.0938 424.086 74.2207 423.598 74.3379L423.793 73.6055V74.9727H422.152V73.6055L422.318 74.2598L421.02 73.9766L421.068 73.332H424.887ZM434.916 83.1562C433.738 83.1562 432.829 82.8372 432.191 82.1992C431.553 81.5612 431.234 80.6497 431.234 79.4648C431.234 78.2604 431.547 77.3066 432.172 76.6035C432.797 75.8939 433.64 75.5391 434.701 75.5391C435.652 75.5391 436.384 75.8385 436.898 76.4375C437.413 77.0299 437.67 77.8828 437.67 78.9961C437.67 79.0938 437.667 79.1914 437.66 79.2891C437.654 79.3867 437.644 79.4811 437.631 79.5723L435.99 79.2598C435.99 78.2637 435.87 77.5443 435.629 77.1016C435.395 76.6589 435.01 76.4375 434.477 76.4375C433.435 76.4375 432.914 77.2611 432.914 78.9082C432.914 80.985 433.744 82.0234 435.404 82.0234C436.055 82.0234 436.736 81.89 437.445 81.623L437.377 82.541C437.071 82.7363 436.703 82.8893 436.273 83C435.85 83.1042 435.398 83.1562 434.916 83.1562ZM431.869 79.5723V78.7715H437.475L437.631 79.5723H431.869ZM441.225 83.1562C440.32 83.1562 439.568 82.9479 438.969 82.5312C438.917 82.2904 438.878 82.0137 438.852 81.7012C438.826 81.3822 438.822 81.0566 438.842 80.7246H439.604L440.404 82.4043L439.77 81.8184C440.264 82.1374 440.801 82.2969 441.381 82.2969C442.221 82.2969 442.641 81.9616 442.641 81.291C442.641 80.7962 442.302 80.4382 441.625 80.2168L440.824 79.9629C439.561 79.5658 438.93 78.8431 438.93 77.7949C438.93 77.1113 439.171 76.5677 439.652 76.1641C440.134 75.7604 440.779 75.5586 441.586 75.5586C442.315 75.5586 442.969 75.7083 443.549 76.0078C443.66 76.5026 443.705 77.0462 443.686 77.6387H442.885L442.084 75.959L443.041 76.877C442.481 76.571 441.944 76.418 441.43 76.418C440.714 76.418 440.355 76.7272 440.355 77.3457C440.355 77.847 440.717 78.2148 441.439 78.4492L442.24 78.7031C442.872 78.9049 443.34 79.1816 443.646 79.5332C443.952 79.8848 444.105 80.321 444.105 80.8418C444.105 81.5514 443.845 82.1146 443.324 82.5312C442.803 82.9479 442.104 83.1562 441.225 83.1562ZM446.332 82.9414V76.4082L447.895 76.2227V82.9414H446.332ZM446.332 78.0293V76.7793L446.566 77.209L445.219 76.5645L445.258 76.1543C445.544 76.0241 445.876 75.9134 446.254 75.8223C446.632 75.7311 447.035 75.666 447.465 75.627H447.895V77.1797L446.332 78.0293ZM445.277 83L445.326 82.4141C445.495 82.3359 445.678 82.2676 445.873 82.209C446.075 82.1439 446.293 82.0853 446.527 82.0332L446.332 82.7559V81.418H447.895V82.7559L447.729 82.1113L448.988 82.3945L448.939 83H445.277ZM446.967 74.3672C446.648 74.3672 446.394 74.276 446.205 74.0938C446.023 73.9115 445.932 73.6641 445.932 73.3516C445.932 73.0391 446.023 72.7917 446.205 72.6094C446.394 72.4271 446.648 72.3359 446.967 72.3359C447.286 72.3359 447.536 72.4271 447.719 72.6094C447.908 72.7917 448.002 73.0391 448.002 73.3516C448.002 73.6641 447.908 73.9115 447.719 74.0938C447.536 74.276 447.286 74.3672 446.967 74.3672ZM452.924 80.7051C452.045 80.7051 451.345 80.474 450.824 80.0117C450.303 79.5495 450.043 78.9245 450.043 78.1367C450.043 77.3424 450.303 76.7142 450.824 76.252C451.352 75.7832 452.058 75.5488 452.943 75.5488C453.458 75.5488 453.93 75.6595 454.359 75.8809C454.796 76.1022 455.147 76.4049 455.414 76.7891C455.681 77.1732 455.814 77.6159 455.814 78.1172C455.814 78.9049 455.554 79.5332 455.033 80.002C454.512 80.4707 453.809 80.7051 452.924 80.7051ZM453.051 79.8848C453.852 79.8848 454.252 79.3574 454.252 78.3027C454.252 77.0137 453.77 76.3691 452.807 76.3691C452.006 76.3691 451.605 76.8997 451.605 77.9609C451.605 78.5794 451.729 79.0547 451.977 79.3867C452.23 79.7188 452.589 79.8848 453.051 79.8848ZM456.596 76.7109L454.359 76.5938L452.943 75.5488C453.249 75.5488 453.487 75.5684 453.656 75.6074C453.826 75.64 453.982 75.6758 454.125 75.7148C454.268 75.7539 454.454 75.7734 454.682 75.7734C454.844 75.7734 455.098 75.7637 455.443 75.7441C455.795 75.7181 456.212 75.6823 456.693 75.6367L456.596 76.7109ZM452.807 86.418C451.863 86.418 451.107 86.2389 450.541 85.8809C449.981 85.5293 449.701 85.054 449.701 84.4551C449.701 83.7194 450.173 83.1204 451.117 82.6582L451.664 82.9707C451.26 83.2897 451.059 83.6771 451.059 84.1328C451.059 84.5885 451.238 84.9368 451.596 85.1777C451.954 85.4186 452.465 85.5391 453.129 85.5391C453.832 85.5391 454.389 85.4089 454.799 85.1484C455.215 84.8945 455.424 84.5495 455.424 84.1133C455.424 83.6576 455.118 83.4297 454.506 83.4297H452.279C451.713 83.4297 451.277 83.2995 450.971 83.0391C450.665 82.7852 450.512 82.4206 450.512 81.9453C450.512 81.1641 450.948 80.5553 451.82 80.1191L452.416 80.2168C451.934 80.5749 451.693 80.9622 451.693 81.3789C451.693 81.8216 451.999 82.043 452.611 82.043H454.838C455.489 82.043 455.987 82.1829 456.332 82.4629C456.684 82.7363 456.859 83.1335 456.859 83.6543C456.859 84.1882 456.684 84.6634 456.332 85.0801C455.987 85.4967 455.508 85.8223 454.896 86.0566C454.291 86.2975 453.594 86.418 452.807 86.418ZM462.992 82.9414V78.0195C462.992 77.1276 462.562 76.6816 461.703 76.6816C461.026 76.6816 460.342 76.9551 459.652 77.502L459.457 77.0137C459.854 76.5449 460.31 76.1836 460.824 75.9297C461.339 75.6758 461.879 75.5488 462.445 75.5488C463.122 75.5488 463.643 75.7376 464.008 76.1152C464.372 76.4863 464.555 77.0202 464.555 77.7168V82.9414H462.992ZM458.578 82.9414V76.418L460.141 76.8281V82.9414H458.578ZM457.582 83L457.631 82.4141C457.82 82.3229 458.008 82.248 458.197 82.1895C458.386 82.1309 458.575 82.0788 458.764 82.0332L458.578 82.7559V81.418H460.141V82.7559L459.984 82.1113L461.176 82.3945L461.127 83H457.582ZM462.172 83L462.221 82.375C462.357 82.3034 462.504 82.2415 462.66 82.1895C462.816 82.1309 462.989 82.0788 463.178 82.0332L462.992 82.7559V81.418H464.555V82.7559L464.398 82.1113L465.59 82.3945L465.541 83H462.172ZM458.578 78.0293V76.7793L458.812 77.209L457.465 76.5645L457.504 76.1543C457.79 76.0241 458.122 75.9134 458.5 75.8223C458.878 75.7311 459.281 75.666 459.711 75.627L460.082 77.1797L458.578 78.0293ZM365.209 113.059L362.553 103.957L363.021 104.26L361.693 103.977L361.742 103.332H365.473L365.424 103.977C365.118 104.107 364.701 104.217 364.174 104.309L364.291 104.016L366.479 112.248L366.674 113.01C366.472 113.042 366.234 113.062 365.961 113.068C365.694 113.081 365.443 113.078 365.209 113.059ZM366.674 113.01L365.678 112.863L368.285 103.557L369.369 103.566L366.674 113.01ZM370.785 113.059L368.344 104.182L368.285 103.557C368.467 103.524 368.692 103.505 368.959 103.498C369.226 103.485 369.464 103.485 369.672 103.498L372.035 112.248L372.25 113.01C372.048 113.042 371.811 113.062 371.537 113.068C371.264 113.081 371.013 113.078 370.785 113.059ZM372.25 113.01L371.254 112.863L373.686 103.967L373.793 104.26L372.484 103.977L372.533 103.332H375.678L375.629 103.957C375.486 104.035 375.313 104.107 375.111 104.172C374.91 104.23 374.691 104.279 374.457 104.318L374.877 103.977L372.25 113.01ZM379.35 113.156C378.171 113.156 377.263 112.837 376.625 112.199C375.987 111.561 375.668 110.65 375.668 109.465C375.668 108.26 375.98 107.307 376.605 106.604C377.23 105.894 378.074 105.539 379.135 105.539C380.085 105.539 380.818 105.839 381.332 106.438C381.846 107.03 382.104 107.883 382.104 108.996C382.104 109.094 382.1 109.191 382.094 109.289C382.087 109.387 382.077 109.481 382.064 109.572L380.424 109.26C380.424 108.264 380.303 107.544 380.062 107.102C379.828 106.659 379.444 106.438 378.91 106.438C377.868 106.438 377.348 107.261 377.348 108.908C377.348 110.985 378.178 112.023 379.838 112.023C380.489 112.023 381.169 111.89 381.879 111.623L381.811 112.541C381.505 112.736 381.137 112.889 380.707 113C380.284 113.104 379.831 113.156 379.35 113.156ZM376.303 109.572V108.771H381.908L382.064 109.572H376.303ZM386.635 113.176C385.645 113.176 384.955 112.87 384.564 112.258L384.877 111.525C385.456 112.014 386.078 112.258 386.742 112.258C387.38 112.258 387.868 112.017 388.207 111.535C388.546 111.047 388.715 110.354 388.715 109.455C388.715 108.563 388.546 107.876 388.207 107.395C387.875 106.913 387.4 106.672 386.781 106.672C386.189 106.672 385.58 106.916 384.955 107.404L384.77 106.984C385.577 106.021 386.482 105.539 387.484 105.539C388.376 105.539 389.083 105.861 389.604 106.506C390.131 107.15 390.395 108.02 390.395 109.113C390.395 110.35 390.053 111.337 389.369 112.072C388.692 112.808 387.781 113.176 386.635 113.176ZM383.832 113L383.891 111.594V102.551L385.453 102.941V112.258L384.926 112.609C384.802 112.759 384.659 112.889 384.496 113H383.832ZM383.891 104.27V103.049L384.037 103.391L382.719 102.873L382.758 102.482C383.37 102.261 384.073 102.134 384.867 102.102H385.453V103.781L383.891 104.27ZM398.646 109.582C397.995 109.582 397.299 109.543 396.557 109.465L396.703 108.547C397.439 108.625 398.145 108.664 398.822 108.664C400.111 108.664 400.756 107.932 400.756 106.467C400.756 105.028 400.137 104.309 398.9 104.309H396.557V103.332H398.988C400.141 103.332 401.026 103.586 401.645 104.094C402.263 104.595 402.572 105.314 402.572 106.252C402.572 107.268 402.217 108.078 401.508 108.684C400.805 109.283 399.851 109.582 398.646 109.582ZM395.922 112.854V103.469H397.562V112.854H395.922ZM394.828 113L394.877 112.375C395.215 112.238 395.629 112.111 396.117 111.994L395.922 112.727V111.359H397.562V112.727L397.348 112.072L398.988 112.355L398.939 113H394.828ZM398.656 103.332L398.607 103.957C398.269 104.094 397.855 104.221 397.367 104.338L397.562 103.605V104.973H395.922V103.605L396.088 104.26L394.789 103.977L394.838 103.332H398.656ZM406.234 113.166C404.874 113.166 404.193 112.404 404.193 110.881V106.457L405.756 106.564V110.568C405.756 111.089 405.85 111.467 406.039 111.701C406.234 111.936 406.54 112.053 406.957 112.053C407.628 112.053 408.324 111.763 409.047 111.184L409.232 111.623C408.36 112.652 407.361 113.166 406.234 113.166ZM404.193 107.6V106.594L404.428 106.984L403.266 106.428L403.314 105.939C403.887 105.751 404.558 105.646 405.326 105.627H405.756V107.229L404.193 107.6ZM410.111 112.424L408.549 112.033V106.477L410.111 106.574V112.424ZM408.549 107.6V106.594L408.783 106.994L407.533 106.398L407.572 105.969C407.885 105.858 408.223 105.777 408.588 105.725C408.952 105.666 409.317 105.633 409.682 105.627H410.111V107.209L408.549 107.6ZM408.979 113.029L408.646 111.76L410.111 111.34V112.404L409.896 112.014L411.088 112.355L411.039 112.922C410.505 113.007 409.818 113.042 408.979 113.029ZM415.521 113.176C414.532 113.176 413.842 112.87 413.451 112.258L413.764 111.525C414.343 112.014 414.965 112.258 415.629 112.258C416.267 112.258 416.755 112.017 417.094 111.535C417.432 111.047 417.602 110.354 417.602 109.455C417.602 108.563 417.432 107.876 417.094 107.395C416.762 106.913 416.286 106.672 415.668 106.672C415.076 106.672 414.467 106.916 413.842 107.404L413.656 106.984C414.464 106.021 415.368 105.539 416.371 105.539C417.263 105.539 417.969 105.861 418.49 106.506C419.018 107.15 419.281 108.02 419.281 109.113C419.281 110.35 418.939 111.337 418.256 112.072C417.579 112.808 416.667 113.176 415.521 113.176ZM412.719 113L412.777 111.594V102.551L414.34 102.941V112.258L413.812 112.609C413.689 112.759 413.546 112.889 413.383 113H412.719ZM412.777 104.27V103.049L412.924 103.391L411.605 102.873L411.645 102.482C412.257 102.261 412.96 102.134 413.754 102.102H414.34V103.781L412.777 104.27ZM421.449 112.941V102.902L423.012 103.186V112.941H421.449ZM420.336 113L420.385 112.414C420.561 112.342 420.749 112.277 420.951 112.219C421.16 112.154 421.387 112.092 421.635 112.033L421.449 112.756V111.418H423.012V112.756L422.855 112.111L424.164 112.395L424.115 113H420.336ZM421.449 104.27V103.049L421.596 103.391L420.277 102.873L420.316 102.482C420.928 102.261 421.632 102.134 422.426 102.102H423.012V103.781L421.449 104.27ZM426.234 112.941V106.408L427.797 106.223V112.941H426.234ZM426.234 108.029V106.779L426.469 107.209L425.121 106.564L425.16 106.154C425.447 106.024 425.779 105.913 426.156 105.822C426.534 105.731 426.938 105.666 427.367 105.627H427.797V107.18L426.234 108.029ZM425.18 113L425.229 112.414C425.398 112.336 425.58 112.268 425.775 112.209C425.977 112.144 426.195 112.085 426.43 112.033L426.234 112.756V111.418H427.797V112.756L427.631 112.111L428.891 112.395L428.842 113H425.18ZM426.869 104.367C426.55 104.367 426.296 104.276 426.107 104.094C425.925 103.911 425.834 103.664 425.834 103.352C425.834 103.039 425.925 102.792 426.107 102.609C426.296 102.427 426.55 102.336 426.869 102.336C427.188 102.336 427.439 102.427 427.621 102.609C427.81 102.792 427.904 103.039 427.904 103.352C427.904 103.664 427.81 103.911 427.621 104.094C427.439 104.276 427.188 104.367 426.869 104.367ZM432.279 113.156C431.374 113.156 430.622 112.948 430.023 112.531C429.971 112.29 429.932 112.014 429.906 111.701C429.88 111.382 429.877 111.057 429.896 110.725H430.658L431.459 112.404L430.824 111.818C431.319 112.137 431.856 112.297 432.436 112.297C433.275 112.297 433.695 111.962 433.695 111.291C433.695 110.796 433.357 110.438 432.68 110.217L431.879 109.963C430.616 109.566 429.984 108.843 429.984 107.795C429.984 107.111 430.225 106.568 430.707 106.164C431.189 105.76 431.833 105.559 432.641 105.559C433.37 105.559 434.024 105.708 434.604 106.008C434.714 106.503 434.76 107.046 434.74 107.639H433.939L433.139 105.959L434.096 106.877C433.536 106.571 432.999 106.418 432.484 106.418C431.768 106.418 431.41 106.727 431.41 107.346C431.41 107.847 431.771 108.215 432.494 108.449L433.295 108.703C433.926 108.905 434.395 109.182 434.701 109.533C435.007 109.885 435.16 110.321 435.16 110.842C435.16 111.551 434.9 112.115 434.379 112.531C433.858 112.948 433.158 113.156 432.279 113.156ZM437.25 112.941V102.902L438.812 103.186V112.941H437.25ZM441.703 112.941V108.02C441.703 107.128 441.267 106.682 440.395 106.682C439.704 106.682 439.014 106.955 438.324 107.502L438.129 107.014C438.956 106.037 439.955 105.549 441.127 105.549C441.817 105.549 442.344 105.738 442.709 106.115C443.08 106.486 443.266 107.02 443.266 107.717V112.941H441.703ZM436.254 113L436.303 112.414C436.492 112.323 436.68 112.248 436.869 112.189C437.058 112.131 437.247 112.079 437.436 112.033L437.25 112.756V111.418H438.812V112.756L438.656 112.111L439.848 112.395L439.799 113H436.254ZM440.883 113L440.932 112.375C441.068 112.303 441.215 112.242 441.371 112.189C441.527 112.131 441.7 112.079 441.889 112.033L441.703 112.756V111.418H443.266V112.756L443.109 112.111L444.301 112.395L444.252 113H440.883ZM437.25 104.27V103.049L437.396 103.391L436.078 102.873L436.117 102.482C436.729 102.261 437.432 102.134 438.227 102.102H438.812V103.781L437.25 104.27ZM446.332 112.941V106.408L447.895 106.223V112.941H446.332ZM446.332 108.029V106.779L446.566 107.209L445.219 106.564L445.258 106.154C445.544 106.024 445.876 105.913 446.254 105.822C446.632 105.731 447.035 105.666 447.465 105.627H447.895V107.18L446.332 108.029ZM445.277 113L445.326 112.414C445.495 112.336 445.678 112.268 445.873 112.209C446.075 112.144 446.293 112.085 446.527 112.033L446.332 112.756V111.418H447.895V112.756L447.729 112.111L448.988 112.395L448.939 113H445.277ZM446.967 104.367C446.648 104.367 446.394 104.276 446.205 104.094C446.023 103.911 445.932 103.664 445.932 103.352C445.932 103.039 446.023 102.792 446.205 102.609C446.394 102.427 446.648 102.336 446.967 102.336C447.286 102.336 447.536 102.427 447.719 102.609C447.908 102.792 448.002 103.039 448.002 103.352C448.002 103.664 447.908 103.911 447.719 104.094C447.536 104.276 447.286 104.367 446.967 104.367ZM455.395 112.941V108.02C455.395 107.128 454.965 106.682 454.105 106.682C453.428 106.682 452.745 106.955 452.055 107.502L451.859 107.014C452.257 106.545 452.712 106.184 453.227 105.93C453.741 105.676 454.281 105.549 454.848 105.549C455.525 105.549 456.046 105.738 456.41 106.115C456.775 106.486 456.957 107.02 456.957 107.717V112.941H455.395ZM450.98 112.941V106.418L452.543 106.828V112.941H450.98ZM449.984 113L450.033 112.414C450.222 112.323 450.411 112.248 450.6 112.189C450.788 112.131 450.977 112.079 451.166 112.033L450.98 112.756V111.418H452.543V112.756L452.387 112.111L453.578 112.395L453.529 113H449.984ZM454.574 113L454.623 112.375C454.76 112.303 454.906 112.242 455.062 112.189C455.219 112.131 455.391 112.079 455.58 112.033L455.395 112.756V111.418H456.957V112.756L456.801 112.111L457.992 112.395L457.943 113H454.574ZM450.98 108.029V106.779L451.215 107.209L449.867 106.564L449.906 106.154C450.193 106.024 450.525 105.913 450.902 105.822C451.28 105.731 451.684 105.666 452.113 105.627L452.484 107.18L450.98 108.029ZM461.928 110.705C461.049 110.705 460.349 110.474 459.828 110.012C459.307 109.549 459.047 108.924 459.047 108.137C459.047 107.342 459.307 106.714 459.828 106.252C460.355 105.783 461.062 105.549 461.947 105.549C462.462 105.549 462.934 105.66 463.363 105.881C463.799 106.102 464.151 106.405 464.418 106.789C464.685 107.173 464.818 107.616 464.818 108.117C464.818 108.905 464.558 109.533 464.037 110.002C463.516 110.471 462.813 110.705 461.928 110.705ZM462.055 109.885C462.855 109.885 463.256 109.357 463.256 108.303C463.256 107.014 462.774 106.369 461.811 106.369C461.01 106.369 460.609 106.9 460.609 107.961C460.609 108.579 460.733 109.055 460.98 109.387C461.234 109.719 461.592 109.885 462.055 109.885ZM465.6 106.711L463.363 106.594L461.947 105.549C462.253 105.549 462.491 105.568 462.66 105.607C462.829 105.64 462.986 105.676 463.129 105.715C463.272 105.754 463.458 105.773 463.686 105.773C463.848 105.773 464.102 105.764 464.447 105.744C464.799 105.718 465.215 105.682 465.697 105.637L465.6 106.711ZM461.811 116.418C460.867 116.418 460.111 116.239 459.545 115.881C458.985 115.529 458.705 115.054 458.705 114.455C458.705 113.719 459.177 113.12 460.121 112.658L460.668 112.971C460.264 113.29 460.062 113.677 460.062 114.133C460.062 114.589 460.242 114.937 460.6 115.178C460.958 115.419 461.469 115.539 462.133 115.539C462.836 115.539 463.393 115.409 463.803 115.148C464.219 114.895 464.428 114.549 464.428 114.113C464.428 113.658 464.122 113.43 463.51 113.43H461.283C460.717 113.43 460.281 113.299 459.975 113.039C459.669 112.785 459.516 112.421 459.516 111.945C459.516 111.164 459.952 110.555 460.824 110.119L461.42 110.217C460.938 110.575 460.697 110.962 460.697 111.379C460.697 111.822 461.003 112.043 461.615 112.043H463.842C464.493 112.043 464.991 112.183 465.336 112.463C465.688 112.736 465.863 113.133 465.863 113.654C465.863 114.188 465.688 114.663 465.336 115.08C464.991 115.497 464.512 115.822 463.9 116.057C463.295 116.298 462.598 116.418 461.811 116.418ZM387.387 143.166C386.28 143.166 385.398 142.896 384.74 142.355C384.083 141.815 383.754 141.089 383.754 140.178L385.434 139.973C385.434 140.624 385.622 141.128 386 141.486C386.378 141.838 386.915 142.014 387.611 142.014C388.308 142.014 388.845 141.838 389.223 141.486C389.6 141.128 389.789 140.624 389.789 139.973L391.02 140.178C391.02 141.089 390.691 141.815 390.033 142.355C389.376 142.896 388.493 143.166 387.387 143.166ZM383.754 140.178V133.469H385.434V139.973L383.754 140.178ZM383.754 134.973V133.605L383.9 134.26L382.719 133.977L382.768 133.332H386.664L386.615 133.957C386.465 134.016 386.27 134.077 386.029 134.143C385.788 134.208 385.515 134.273 385.209 134.338L385.434 133.605V134.973H383.754ZM391.02 140.178L389.789 139.973V133.469H391.02V140.178ZM389.789 134.973V133.605L389.975 134.26L388.52 133.977L388.568 133.332H392.016L391.967 133.957C391.667 134.1 391.29 134.227 390.834 134.338L391.02 133.605V134.973H389.789ZM394.086 142.854V133.469H395.727V142.854H394.086ZM392.992 143L393.041 142.375C393.38 142.238 393.793 142.111 394.281 141.994L394.086 142.727V141.359H395.727V142.727L395.561 142.072L396.859 142.355L396.811 143H392.992ZM396.82 133.332L396.771 133.957C396.433 134.094 396.02 134.221 395.531 134.338L395.727 133.605V134.973H394.086V133.605L394.252 134.26L392.953 133.977L393.002 133.332H396.82ZM402.465 143.166C401.358 143.166 400.476 142.896 399.818 142.355C399.161 141.815 398.832 141.089 398.832 140.178L400.512 139.973C400.512 140.624 400.701 141.128 401.078 141.486C401.456 141.838 401.993 142.014 402.689 142.014C403.386 142.014 403.923 141.838 404.301 141.486C404.678 141.128 404.867 140.624 404.867 139.973L406.098 140.178C406.098 141.089 405.769 141.815 405.111 142.355C404.454 142.896 403.572 143.166 402.465 143.166ZM398.832 140.178V133.469H400.512V139.973L398.832 140.178ZM398.832 134.973V133.605L398.979 134.26L397.797 133.977L397.846 133.332H401.742L401.693 133.957C401.544 134.016 401.348 134.077 401.107 134.143C400.867 134.208 400.593 134.273 400.287 134.338L400.512 133.605V134.973H398.832ZM406.098 140.178L404.867 139.973V133.469H406.098V140.178ZM404.867 134.973V133.605L405.053 134.26L403.598 133.977L403.646 133.332H407.094L407.045 133.957C406.745 134.1 406.368 134.227 405.912 134.338L406.098 133.605V134.973H404.867ZM412.992 143L413.041 142.355C413.347 142.225 413.764 142.115 414.291 142.023L414.252 142.277L411.762 138.449L413.158 137.785L416.312 142.443L415.668 142.072L416.967 142.355L416.918 143H412.992ZM407.738 143L407.787 142.375C408.106 142.212 408.497 142.089 408.959 142.004L408.373 142.395L411.693 137.873L412.973 137.922L409.818 142.385L409.799 142.072L411.107 142.355L411.059 143H407.738ZM411.645 138.508L408.49 133.889L409.135 134.26L407.836 133.977L407.885 133.332H411.791L411.742 133.977C411.462 134.107 411.052 134.217 410.512 134.309L410.551 134.055L413.041 137.844L411.645 138.508ZM412.875 138.42L411.596 138.371L414.75 133.947L414.77 134.26L413.48 133.977L413.529 133.332H416.83L416.781 133.957C416.462 134.12 416.072 134.243 415.609 134.328L416.195 133.938L412.875 138.42ZM422.992 143V142.023H425.355C426.247 142.023 426.931 141.691 427.406 141.027C427.888 140.357 428.129 139.4 428.129 138.156C428.129 135.591 427.032 134.309 424.838 134.309H422.992V133.332H424.926C426.56 133.332 427.813 133.736 428.686 134.543C429.564 135.35 430.004 136.503 430.004 138C430.004 139.016 429.805 139.898 429.408 140.646C429.011 141.395 428.451 141.975 427.729 142.385C427.006 142.795 426.15 143 425.16 143H422.992ZM422.152 142.854V133.469H423.793V142.854H422.152ZM421.059 143L421.107 142.375C421.446 142.238 421.859 142.111 422.348 141.994L422.152 142.727V141.359H423.793V142.727L423.627 142.072L424.926 142.355L424.877 143H421.059ZM424.887 133.332L424.838 133.957C424.499 134.094 424.086 134.221 423.598 134.338L423.793 133.605V134.973H422.152V133.605L422.318 134.26L421.02 133.977L421.068 133.332H424.887ZM434.916 143.156C433.738 143.156 432.829 142.837 432.191 142.199C431.553 141.561 431.234 140.65 431.234 139.465C431.234 138.26 431.547 137.307 432.172 136.604C432.797 135.894 433.64 135.539 434.701 135.539C435.652 135.539 436.384 135.839 436.898 136.438C437.413 137.03 437.67 137.883 437.67 138.996C437.67 139.094 437.667 139.191 437.66 139.289C437.654 139.387 437.644 139.481 437.631 139.572L435.99 139.26C435.99 138.264 435.87 137.544 435.629 137.102C435.395 136.659 435.01 136.438 434.477 136.438C433.435 136.438 432.914 137.261 432.914 138.908C432.914 140.985 433.744 142.023 435.404 142.023C436.055 142.023 436.736 141.89 437.445 141.623L437.377 142.541C437.071 142.736 436.703 142.889 436.273 143C435.85 143.104 435.398 143.156 434.916 143.156ZM431.869 139.572V138.771H437.475L437.631 139.572H431.869ZM441.225 143.156C440.32 143.156 439.568 142.948 438.969 142.531C438.917 142.29 438.878 142.014 438.852 141.701C438.826 141.382 438.822 141.057 438.842 140.725H439.604L440.404 142.404L439.77 141.818C440.264 142.137 440.801 142.297 441.381 142.297C442.221 142.297 442.641 141.962 442.641 141.291C442.641 140.796 442.302 140.438 441.625 140.217L440.824 139.963C439.561 139.566 438.93 138.843 438.93 137.795C438.93 137.111 439.171 136.568 439.652 136.164C440.134 135.76 440.779 135.559 441.586 135.559C442.315 135.559 442.969 135.708 443.549 136.008C443.66 136.503 443.705 137.046 443.686 137.639H442.885L442.084 135.959L443.041 136.877C442.481 136.571 441.944 136.418 441.43 136.418C440.714 136.418 440.355 136.727 440.355 137.346C440.355 137.847 440.717 138.215 441.439 138.449L442.24 138.703C442.872 138.905 443.34 139.182 443.646 139.533C443.952 139.885 444.105 140.321 444.105 140.842C444.105 141.551 443.845 142.115 443.324 142.531C442.803 142.948 442.104 143.156 441.225 143.156ZM446.332 142.941V136.408L447.895 136.223V142.941H446.332ZM446.332 138.029V136.779L446.566 137.209L445.219 136.564L445.258 136.154C445.544 136.024 445.876 135.913 446.254 135.822C446.632 135.731 447.035 135.666 447.465 135.627H447.895V137.18L446.332 138.029ZM445.277 143L445.326 142.414C445.495 142.336 445.678 142.268 445.873 142.209C446.075 142.144 446.293 142.085 446.527 142.033L446.332 142.756V141.418H447.895V142.756L447.729 142.111L448.988 142.395L448.939 143H445.277ZM446.967 134.367C446.648 134.367 446.394 134.276 446.205 134.094C446.023 133.911 445.932 133.664 445.932 133.352C445.932 133.039 446.023 132.792 446.205 132.609C446.394 132.427 446.648 132.336 446.967 132.336C447.286 132.336 447.536 132.427 447.719 132.609C447.908 132.792 448.002 133.039 448.002 133.352C448.002 133.664 447.908 133.911 447.719 134.094C447.536 134.276 447.286 134.367 446.967 134.367ZM452.924 140.705C452.045 140.705 451.345 140.474 450.824 140.012C450.303 139.549 450.043 138.924 450.043 138.137C450.043 137.342 450.303 136.714 450.824 136.252C451.352 135.783 452.058 135.549 452.943 135.549C453.458 135.549 453.93 135.66 454.359 135.881C454.796 136.102 455.147 136.405 455.414 136.789C455.681 137.173 455.814 137.616 455.814 138.117C455.814 138.905 455.554 139.533 455.033 140.002C454.512 140.471 453.809 140.705 452.924 140.705ZM453.051 139.885C453.852 139.885 454.252 139.357 454.252 138.303C454.252 137.014 453.77 136.369 452.807 136.369C452.006 136.369 451.605 136.9 451.605 137.961C451.605 138.579 451.729 139.055 451.977 139.387C452.23 139.719 452.589 139.885 453.051 139.885ZM456.596 136.711L454.359 136.594L452.943 135.549C453.249 135.549 453.487 135.568 453.656 135.607C453.826 135.64 453.982 135.676 454.125 135.715C454.268 135.754 454.454 135.773 454.682 135.773C454.844 135.773 455.098 135.764 455.443 135.744C455.795 135.718 456.212 135.682 456.693 135.637L456.596 136.711ZM452.807 146.418C451.863 146.418 451.107 146.239 450.541 145.881C449.981 145.529 449.701 145.054 449.701 144.455C449.701 143.719 450.173 143.12 451.117 142.658L451.664 142.971C451.26 143.29 451.059 143.677 451.059 144.133C451.059 144.589 451.238 144.937 451.596 145.178C451.954 145.419 452.465 145.539 453.129 145.539C453.832 145.539 454.389 145.409 454.799 145.148C455.215 144.895 455.424 144.549 455.424 144.113C455.424 143.658 455.118 143.43 454.506 143.43H452.279C451.713 143.43 451.277 143.299 450.971 143.039C450.665 142.785 450.512 142.421 450.512 141.945C450.512 141.164 450.948 140.555 451.82 140.119L452.416 140.217C451.934 140.575 451.693 140.962 451.693 141.379C451.693 141.822 451.999 142.043 452.611 142.043H454.838C455.489 142.043 455.987 142.183 456.332 142.463C456.684 142.736 456.859 143.133 456.859 143.654C456.859 144.188 456.684 144.663 456.332 145.08C455.987 145.497 455.508 145.822 454.896 146.057C454.291 146.298 453.594 146.418 452.807 146.418ZM462.992 142.941V138.02C462.992 137.128 462.562 136.682 461.703 136.682C461.026 136.682 460.342 136.955 459.652 137.502L459.457 137.014C459.854 136.545 460.31 136.184 460.824 135.93C461.339 135.676 461.879 135.549 462.445 135.549C463.122 135.549 463.643 135.738 464.008 136.115C464.372 136.486 464.555 137.02 464.555 137.717V142.941H462.992ZM458.578 142.941V136.418L460.141 136.828V142.941H458.578ZM457.582 143L457.631 142.414C457.82 142.323 458.008 142.248 458.197 142.189C458.386 142.131 458.575 142.079 458.764 142.033L458.578 142.756V141.418H460.141V142.756L459.984 142.111L461.176 142.395L461.127 143H457.582ZM462.172 143L462.221 142.375C462.357 142.303 462.504 142.242 462.66 142.189C462.816 142.131 462.989 142.079 463.178 142.033L462.992 142.756V141.418H464.555V142.756L464.398 142.111L465.59 142.395L465.541 143H462.172ZM458.578 138.029V136.779L458.812 137.209L457.465 136.564L457.504 136.154C457.79 136.024 458.122 135.913 458.5 135.822C458.878 135.731 459.281 135.666 459.711 135.627L460.082 137.18L458.578 138.029ZM370.59 173.166C368.923 173.166 367.641 172.753 366.742 171.926C365.844 171.099 365.395 169.917 365.395 168.381C365.395 167.313 365.603 166.392 366.02 165.617C366.436 164.836 367.025 164.234 367.787 163.811C368.555 163.381 369.457 163.166 370.492 163.166C371.026 163.166 371.54 163.221 372.035 163.332C372.53 163.436 372.934 163.579 373.246 163.762C373.298 164.139 373.334 164.52 373.354 164.904C373.373 165.282 373.37 165.633 373.344 165.959H372.602L371.713 163.889L372.562 164.641C371.84 164.283 371.091 164.104 370.316 164.104C368.259 164.104 367.23 165.412 367.23 168.029C367.23 170.829 368.409 172.229 370.766 172.229C371.605 172.229 372.406 172.053 373.168 171.701L373.451 172.58C373.113 172.769 372.696 172.912 372.201 173.01C371.706 173.114 371.169 173.166 370.59 173.166ZM371.889 172.6V169.182H373.451V172.58L371.889 172.6ZM371.889 170.158V168.791L372.064 169.455L370.268 169.182L370.316 168.537H374.154L374.096 169.26C373.855 169.377 373.578 169.471 373.266 169.543L373.451 168.791V170.158H371.889ZM376.273 172.941V166.691L377.836 167.189V172.941H376.273ZM375.277 173L375.326 172.414C375.515 172.323 375.704 172.248 375.893 172.189C376.081 172.131 376.27 172.079 376.459 172.033L376.273 172.746V171.418H377.836V172.746L377.68 172.121L379.262 172.395L379.213 173H375.277ZM377.523 168.117L377.328 167.727C377.673 166.978 378.041 166.441 378.432 166.115C378.822 165.783 379.275 165.617 379.789 165.617C379.874 165.617 379.962 165.62 380.053 165.627C380.15 165.633 380.235 165.65 380.307 165.676L380.199 167.023C380.095 167.01 379.981 167.001 379.857 166.994C379.734 166.981 379.623 166.975 379.525 166.975C379.089 166.975 378.712 167.066 378.393 167.248C378.08 167.424 377.79 167.714 377.523 168.117ZM376.273 168.029V166.779L376.508 167.209L375.16 166.564L375.199 166.154C375.486 166.024 375.818 165.913 376.195 165.822C376.573 165.731 376.977 165.666 377.406 165.627L377.777 167.18L376.273 168.029ZM385.121 171.945C385.121 171.405 385.128 170.855 385.141 170.295C385.154 169.729 385.16 169.198 385.16 168.703V167.844C385.16 166.919 384.711 166.457 383.812 166.457C383.22 166.457 382.673 166.646 382.172 167.023L381.547 167.814C381.527 167.255 381.56 166.743 381.645 166.281C382.517 165.793 383.438 165.549 384.408 165.549C385.938 165.549 386.703 166.278 386.703 167.736C386.703 167.919 386.7 168.192 386.693 168.557C386.687 168.915 386.68 169.302 386.674 169.719C386.667 170.129 386.661 170.516 386.654 170.881C386.648 171.239 386.645 171.516 386.645 171.711L385.121 171.945ZM381.547 167.814L381.684 166.701L383.178 166.135L382.377 167.814H381.547ZM383.119 173.146C382.501 173.146 382.009 172.971 381.645 172.619C381.28 172.261 381.098 171.783 381.098 171.184C381.098 169.888 382.038 169.042 383.92 168.645L385.512 168.312L385.609 169.152L384.213 169.328C383.679 169.393 383.292 169.54 383.051 169.768C382.81 169.989 382.689 170.321 382.689 170.764C382.689 171.623 383.061 172.053 383.803 172.053C384.324 172.053 384.929 171.809 385.619 171.32L385.795 171.672C385.007 172.655 384.115 173.146 383.119 173.146ZM385.512 173.029L385.18 171.76L386.645 171.34V172.404L386.43 172.014L387.621 172.355L387.572 172.922C387.038 173.007 386.352 173.042 385.512 173.029ZM392.211 173.176C391.221 173.176 390.531 172.87 390.141 172.258L390.453 171.525C391.033 172.014 391.654 172.258 392.318 172.258C392.956 172.258 393.445 172.017 393.783 171.535C394.122 171.047 394.291 170.354 394.291 169.455C394.291 168.563 394.122 167.876 393.783 167.395C393.451 166.913 392.976 166.672 392.357 166.672C391.765 166.672 391.156 166.916 390.531 167.404L390.346 166.984C391.153 166.021 392.058 165.539 393.061 165.539C393.952 165.539 394.659 165.861 395.18 166.506C395.707 167.15 395.971 168.02 395.971 169.113C395.971 170.35 395.629 171.337 394.945 172.072C394.268 172.808 393.357 173.176 392.211 173.176ZM388.471 176.125L388.52 175.539C388.708 175.448 388.897 175.373 389.086 175.314C389.275 175.256 389.464 175.204 389.652 175.158L389.467 175.881V174.543H391.029V175.881L390.873 175.246L392.455 175.52L392.406 176.125H388.471ZM389.467 176.018V166.438L391.029 166.838V176.018H389.467ZM389.467 168.029V166.779L389.701 167.209L388.354 166.564L388.393 166.154C388.679 166.024 389.011 165.913 389.389 165.822C389.766 165.731 390.17 165.666 390.6 165.627L390.971 167.18L389.467 168.029ZM398.012 172.941V162.902L399.574 163.186V172.941H398.012ZM402.465 172.941V168.02C402.465 167.128 402.029 166.682 401.156 166.682C400.466 166.682 399.776 166.955 399.086 167.502L398.891 167.014C399.717 166.037 400.717 165.549 401.889 165.549C402.579 165.549 403.106 165.738 403.471 166.115C403.842 166.486 404.027 167.02 404.027 167.717V172.941H402.465ZM397.016 173L397.064 172.414C397.253 172.323 397.442 172.248 397.631 172.189C397.82 172.131 398.008 172.079 398.197 172.033L398.012 172.756V171.418H399.574V172.756L399.418 172.111L400.609 172.395L400.561 173H397.016ZM401.645 173L401.693 172.375C401.83 172.303 401.977 172.242 402.133 172.189C402.289 172.131 402.462 172.079 402.65 172.033L402.465 172.756V171.418H404.027V172.756L403.871 172.111L405.062 172.395L405.014 173H401.645ZM398.012 164.27V163.049L398.158 163.391L396.84 162.873L396.879 162.482C397.491 162.261 398.194 162.134 398.988 162.102H399.574V163.781L398.012 164.27ZM407.094 172.941V166.408L408.656 166.223V172.941H407.094ZM407.094 168.029V166.779L407.328 167.209L405.98 166.564L406.02 166.154C406.306 166.024 406.638 165.913 407.016 165.822C407.393 165.731 407.797 165.666 408.227 165.627H408.656V167.18L407.094 168.029ZM406.039 173L406.088 172.414C406.257 172.336 406.439 172.268 406.635 172.209C406.837 172.144 407.055 172.085 407.289 172.033L407.094 172.756V171.418H408.656V172.756L408.49 172.111L409.75 172.395L409.701 173H406.039ZM407.729 164.367C407.41 164.367 407.156 164.276 406.967 164.094C406.785 163.911 406.693 163.664 406.693 163.352C406.693 163.039 406.785 162.792 406.967 162.609C407.156 162.427 407.41 162.336 407.729 162.336C408.048 162.336 408.298 162.427 408.48 162.609C408.669 162.792 408.764 163.039 408.764 163.352C408.764 163.664 408.669 163.911 408.48 164.094C408.298 164.276 408.048 164.367 407.729 164.367ZM414.32 173.156C413.181 173.156 412.302 172.84 411.684 172.209C411.072 171.577 410.766 170.676 410.766 169.504C410.766 168.293 411.081 167.329 411.713 166.613C412.351 165.897 413.207 165.539 414.281 165.539C415.069 165.539 415.769 165.715 416.381 166.066C416.433 166.307 416.472 166.584 416.498 166.896C416.524 167.209 416.527 167.535 416.508 167.873H415.727L414.926 166.193L415.766 166.926C415.518 166.776 415.251 166.659 414.965 166.574C414.678 166.49 414.415 166.447 414.174 166.447C413.633 166.447 413.217 166.678 412.924 167.141C412.631 167.603 412.484 168.27 412.484 169.143C412.484 171.063 413.269 172.023 414.838 172.023C415.463 172.023 416.098 171.903 416.742 171.662L416.674 172.58C416.049 172.964 415.264 173.156 414.32 173.156ZM422.992 173V172.023H425.355C426.247 172.023 426.931 171.691 427.406 171.027C427.888 170.357 428.129 169.4 428.129 168.156C428.129 165.591 427.032 164.309 424.838 164.309H422.992V163.332H424.926C426.56 163.332 427.813 163.736 428.686 164.543C429.564 165.35 430.004 166.503 430.004 168C430.004 169.016 429.805 169.898 429.408 170.646C429.011 171.395 428.451 171.975 427.729 172.385C427.006 172.795 426.15 173 425.16 173H422.992ZM422.152 172.854V163.469H423.793V172.854H422.152ZM421.059 173L421.107 172.375C421.446 172.238 421.859 172.111 422.348 171.994L422.152 172.727V171.359H423.793V172.727L423.627 172.072L424.926 172.355L424.877 173H421.059ZM424.887 163.332L424.838 163.957C424.499 164.094 424.086 164.221 423.598 164.338L423.793 163.605V164.973H422.152V163.605L422.318 164.26L421.02 163.977L421.068 163.332H424.887ZM434.916 173.156C433.738 173.156 432.829 172.837 432.191 172.199C431.553 171.561 431.234 170.65 431.234 169.465C431.234 168.26 431.547 167.307 432.172 166.604C432.797 165.894 433.64 165.539 434.701 165.539C435.652 165.539 436.384 165.839 436.898 166.438C437.413 167.03 437.67 167.883 437.67 168.996C437.67 169.094 437.667 169.191 437.66 169.289C437.654 169.387 437.644 169.481 437.631 169.572L435.99 169.26C435.99 168.264 435.87 167.544 435.629 167.102C435.395 166.659 435.01 166.438 434.477 166.438C433.435 166.438 432.914 167.261 432.914 168.908C432.914 170.985 433.744 172.023 435.404 172.023C436.055 172.023 436.736 171.89 437.445 171.623L437.377 172.541C437.071 172.736 436.703 172.889 436.273 173C435.85 173.104 435.398 173.156 434.916 173.156ZM431.869 169.572V168.771H437.475L437.631 169.572H431.869ZM441.225 173.156C440.32 173.156 439.568 172.948 438.969 172.531C438.917 172.29 438.878 172.014 438.852 171.701C438.826 171.382 438.822 171.057 438.842 170.725H439.604L440.404 172.404L439.77 171.818C440.264 172.137 440.801 172.297 441.381 172.297C442.221 172.297 442.641 171.962 442.641 171.291C442.641 170.796 442.302 170.438 441.625 170.217L440.824 169.963C439.561 169.566 438.93 168.843 438.93 167.795C438.93 167.111 439.171 166.568 439.652 166.164C440.134 165.76 440.779 165.559 441.586 165.559C442.315 165.559 442.969 165.708 443.549 166.008C443.66 166.503 443.705 167.046 443.686 167.639H442.885L442.084 165.959L443.041 166.877C442.481 166.571 441.944 166.418 441.43 166.418C440.714 166.418 440.355 166.727 440.355 167.346C440.355 167.847 440.717 168.215 441.439 168.449L442.24 168.703C442.872 168.905 443.34 169.182 443.646 169.533C443.952 169.885 444.105 170.321 444.105 170.842C444.105 171.551 443.845 172.115 443.324 172.531C442.803 172.948 442.104 173.156 441.225 173.156ZM446.332 172.941V166.408L447.895 166.223V172.941H446.332ZM446.332 168.029V166.779L446.566 167.209L445.219 166.564L445.258 166.154C445.544 166.024 445.876 165.913 446.254 165.822C446.632 165.731 447.035 165.666 447.465 165.627H447.895V167.18L446.332 168.029ZM445.277 173L445.326 172.414C445.495 172.336 445.678 172.268 445.873 172.209C446.075 172.144 446.293 172.085 446.527 172.033L446.332 172.756V171.418H447.895V172.756L447.729 172.111L448.988 172.395L448.939 173H445.277ZM446.967 164.367C446.648 164.367 446.394 164.276 446.205 164.094C446.023 163.911 445.932 163.664 445.932 163.352C445.932 163.039 446.023 162.792 446.205 162.609C446.394 162.427 446.648 162.336 446.967 162.336C447.286 162.336 447.536 162.427 447.719 162.609C447.908 162.792 448.002 163.039 448.002 163.352C448.002 163.664 447.908 163.911 447.719 164.094C447.536 164.276 447.286 164.367 446.967 164.367ZM452.924 170.705C452.045 170.705 451.345 170.474 450.824 170.012C450.303 169.549 450.043 168.924 450.043 168.137C450.043 167.342 450.303 166.714 450.824 166.252C451.352 165.783 452.058 165.549 452.943 165.549C453.458 165.549 453.93 165.66 454.359 165.881C454.796 166.102 455.147 166.405 455.414 166.789C455.681 167.173 455.814 167.616 455.814 168.117C455.814 168.905 455.554 169.533 455.033 170.002C454.512 170.471 453.809 170.705 452.924 170.705ZM453.051 169.885C453.852 169.885 454.252 169.357 454.252 168.303C454.252 167.014 453.77 166.369 452.807 166.369C452.006 166.369 451.605 166.9 451.605 167.961C451.605 168.579 451.729 169.055 451.977 169.387C452.23 169.719 452.589 169.885 453.051 169.885ZM456.596 166.711L454.359 166.594L452.943 165.549C453.249 165.549 453.487 165.568 453.656 165.607C453.826 165.64 453.982 165.676 454.125 165.715C454.268 165.754 454.454 165.773 454.682 165.773C454.844 165.773 455.098 165.764 455.443 165.744C455.795 165.718 456.212 165.682 456.693 165.637L456.596 166.711ZM452.807 176.418C451.863 176.418 451.107 176.239 450.541 175.881C449.981 175.529 449.701 175.054 449.701 174.455C449.701 173.719 450.173 173.12 451.117 172.658L451.664 172.971C451.26 173.29 451.059 173.677 451.059 174.133C451.059 174.589 451.238 174.937 451.596 175.178C451.954 175.419 452.465 175.539 453.129 175.539C453.832 175.539 454.389 175.409 454.799 175.148C455.215 174.895 455.424 174.549 455.424 174.113C455.424 173.658 455.118 173.43 454.506 173.43H452.279C451.713 173.43 451.277 173.299 450.971 173.039C450.665 172.785 450.512 172.421 450.512 171.945C450.512 171.164 450.948 170.555 451.82 170.119L452.416 170.217C451.934 170.575 451.693 170.962 451.693 171.379C451.693 171.822 451.999 172.043 452.611 172.043H454.838C455.489 172.043 455.987 172.183 456.332 172.463C456.684 172.736 456.859 173.133 456.859 173.654C456.859 174.188 456.684 174.663 456.332 175.08C455.987 175.497 455.508 175.822 454.896 176.057C454.291 176.298 453.594 176.418 452.807 176.418ZM462.992 172.941V168.02C462.992 167.128 462.562 166.682 461.703 166.682C461.026 166.682 460.342 166.955 459.652 167.502L459.457 167.014C459.854 166.545 460.31 166.184 460.824 165.93C461.339 165.676 461.879 165.549 462.445 165.549C463.122 165.549 463.643 165.738 464.008 166.115C464.372 166.486 464.555 167.02 464.555 167.717V172.941H462.992ZM458.578 172.941V166.418L460.141 166.828V172.941H458.578ZM457.582 173L457.631 172.414C457.82 172.323 458.008 172.248 458.197 172.189C458.386 172.131 458.575 172.079 458.764 172.033L458.578 172.756V171.418H460.141V172.756L459.984 172.111L461.176 172.395L461.127 173H457.582ZM462.172 173L462.221 172.375C462.357 172.303 462.504 172.242 462.66 172.189C462.816 172.131 462.989 172.079 463.178 172.033L462.992 172.756V171.418H464.555V172.756L464.398 172.111L465.59 172.395L465.541 173H462.172ZM458.578 168.029V166.779L458.812 167.209L457.465 166.564L457.504 166.154C457.79 166.024 458.122 165.913 458.5 165.822C458.878 165.731 459.281 165.666 459.711 165.627L460.082 167.18L458.578 168.029ZM360.316 202.854V193.469H361.957V202.854H360.316ZM361.146 203V202.023H366.42L366.654 203H361.146ZM366.654 203L365.102 202.482L366.303 200.217H367.055C367.068 200.555 367.038 200.985 366.967 201.506C366.895 202.02 366.791 202.518 366.654 203ZM360.99 198.566V197.512H365.277L365.199 198.566H360.99ZM360.58 194.309V193.332H366.547L366.361 194.309H360.58ZM365.951 195.939L365.072 193.889L366.547 193.332C366.638 193.768 366.697 194.214 366.723 194.67C366.755 195.119 366.755 195.542 366.723 195.939H365.951ZM359.223 203L359.271 202.375C359.61 202.238 360.023 202.111 360.512 201.994L360.316 202.727V201.359H361.957V202.727L361.791 202.072L363.09 202.355L363.041 203H359.223ZM363.051 193.332L363.002 193.957C362.663 194.094 362.25 194.221 361.762 194.338L361.957 193.605V194.973H360.316V193.605L360.482 194.26L359.184 193.977L359.232 193.332H363.051ZM371.02 203.176C370.134 203.176 369.428 202.854 368.9 202.209C368.373 201.564 368.109 200.695 368.109 199.602C368.109 198.358 368.448 197.372 369.125 196.643C369.809 195.907 370.723 195.539 371.869 195.539C372.859 195.539 373.549 195.845 373.939 196.457L373.627 197.189C373.048 196.701 372.426 196.457 371.762 196.457C371.13 196.457 370.642 196.701 370.297 197.189C369.958 197.671 369.789 198.361 369.789 199.26C369.789 200.152 369.955 200.839 370.287 201.32C370.626 201.802 371.104 202.043 371.723 202.043C372.315 202.043 372.924 201.799 373.549 201.311L373.734 201.73C372.927 202.694 372.022 203.176 371.02 203.176ZM374.613 202.434L373.051 202.033V193.068H374.613V202.434ZM373.051 194.27V193.049L373.207 193.391L371.781 192.854L371.82 192.502C372.471 192.268 373.207 192.134 374.027 192.102H374.613V193.781L373.051 194.27ZM373.48 203.029L373.148 201.76L374.613 201.34V202.404L374.398 202.014L375.59 202.355L375.541 202.922C375.007 203.007 374.32 203.042 373.48 203.029ZM377.621 202.941V196.408L379.184 196.223V202.941H377.621ZM377.621 198.029V196.779L377.855 197.209L376.508 196.564L376.547 196.154C376.833 196.024 377.165 195.913 377.543 195.822C377.921 195.731 378.324 195.666 378.754 195.627H379.184V197.18L377.621 198.029ZM376.566 203L376.615 202.414C376.785 202.336 376.967 202.268 377.162 202.209C377.364 202.144 377.582 202.085 377.816 202.033L377.621 202.756V201.418H379.184V202.756L379.018 202.111L380.277 202.395L380.229 203H376.566ZM378.256 194.367C377.937 194.367 377.683 194.276 377.494 194.094C377.312 193.911 377.221 193.664 377.221 193.352C377.221 193.039 377.312 192.792 377.494 192.609C377.683 192.427 377.937 192.336 378.256 192.336C378.575 192.336 378.826 192.427 379.008 192.609C379.197 192.792 379.291 193.039 379.291 193.352C379.291 193.664 379.197 193.911 379.008 194.094C378.826 194.276 378.575 194.367 378.256 194.367ZM384.828 203.176C383.747 203.176 382.888 202.834 382.25 202.15C381.612 201.46 381.293 200.536 381.293 199.377C381.293 198.205 381.615 197.274 382.26 196.584C382.904 195.887 383.77 195.539 384.857 195.539C385.938 195.539 386.794 195.884 387.426 196.574C388.064 197.258 388.383 198.182 388.383 199.348C388.383 200.52 388.061 201.451 387.416 202.141C386.778 202.831 385.915 203.176 384.828 203.176ZM384.994 202.258C386.107 202.258 386.664 201.376 386.664 199.611C386.664 198.596 386.492 197.818 386.146 197.277C385.808 196.73 385.32 196.457 384.682 196.457C383.568 196.457 383.012 197.339 383.012 199.104C383.012 200.119 383.184 200.9 383.529 201.447C383.874 201.988 384.363 202.258 384.994 202.258ZM392.24 203.117C390.925 203.117 390.268 202.45 390.268 201.115V196.408L390.355 195.715L390.717 193.859H391.83V200.822C391.83 201.252 391.908 201.564 392.064 201.76C392.227 201.949 392.488 202.043 392.846 202.043C393.139 202.043 393.513 201.988 393.969 201.877L393.91 202.717C393.428 202.984 392.872 203.117 392.24 203.117ZM389.037 196.652L389.105 195.871C389.483 195.78 389.9 195.728 390.355 195.715H393.93L393.852 196.652H389.037ZM395.883 202.941V196.691L397.445 197.189V202.941H395.883ZM394.887 203L394.936 202.414C395.124 202.323 395.313 202.248 395.502 202.189C395.691 202.131 395.88 202.079 396.068 202.033L395.883 202.746V201.418H397.445V202.746L397.289 202.121L398.871 202.395L398.822 203H394.887ZM397.133 198.117L396.938 197.727C397.283 196.978 397.65 196.441 398.041 196.115C398.432 195.783 398.884 195.617 399.398 195.617C399.483 195.617 399.571 195.62 399.662 195.627C399.76 195.633 399.844 195.65 399.916 195.676L399.809 197.023C399.704 197.01 399.59 197.001 399.467 196.994C399.343 196.981 399.232 196.975 399.135 196.975C398.699 196.975 398.321 197.066 398.002 197.248C397.689 197.424 397.4 197.714 397.133 198.117ZM395.883 198.029V196.779L396.117 197.209L394.77 196.564L394.809 196.154C395.095 196.024 395.427 195.913 395.805 195.822C396.182 195.731 396.586 195.666 397.016 195.627L397.387 197.18L395.883 198.029ZM401.781 202.941V196.408L403.344 196.223V202.941H401.781ZM401.781 198.029V196.779L402.016 197.209L400.668 196.564L400.707 196.154C400.993 196.024 401.326 195.913 401.703 195.822C402.081 195.731 402.484 195.666 402.914 195.627H403.344V197.18L401.781 198.029ZM400.727 203L400.775 202.414C400.945 202.336 401.127 202.268 401.322 202.209C401.524 202.144 401.742 202.085 401.977 202.033L401.781 202.756V201.418H403.344V202.756L403.178 202.111L404.438 202.395L404.389 203H400.727ZM402.416 194.367C402.097 194.367 401.843 194.276 401.654 194.094C401.472 193.911 401.381 193.664 401.381 193.352C401.381 193.039 401.472 192.792 401.654 192.609C401.843 192.427 402.097 192.336 402.416 192.336C402.735 192.336 402.986 192.427 403.168 192.609C403.357 192.792 403.451 193.039 403.451 193.352C403.451 193.664 403.357 193.911 403.168 194.094C402.986 194.276 402.735 194.367 402.416 194.367ZM409.418 201.945C409.418 201.405 409.424 200.855 409.438 200.295C409.451 199.729 409.457 199.198 409.457 198.703V197.844C409.457 196.919 409.008 196.457 408.109 196.457C407.517 196.457 406.97 196.646 406.469 197.023L405.844 197.814C405.824 197.255 405.857 196.743 405.941 196.281C406.814 195.793 407.735 195.549 408.705 195.549C410.235 195.549 411 196.278 411 197.736C411 197.919 410.997 198.192 410.99 198.557C410.984 198.915 410.977 199.302 410.971 199.719C410.964 200.129 410.958 200.516 410.951 200.881C410.945 201.239 410.941 201.516 410.941 201.711L409.418 201.945ZM405.844 197.814L405.98 196.701L407.475 196.135L406.674 197.814H405.844ZM407.416 203.146C406.798 203.146 406.306 202.971 405.941 202.619C405.577 202.261 405.395 201.783 405.395 201.184C405.395 199.888 406.335 199.042 408.217 198.645L409.809 198.312L409.906 199.152L408.51 199.328C407.976 199.393 407.589 199.54 407.348 199.768C407.107 199.989 406.986 200.321 406.986 200.764C406.986 201.623 407.357 202.053 408.1 202.053C408.62 202.053 409.226 201.809 409.916 201.32L410.092 201.672C409.304 202.655 408.412 203.146 407.416 203.146ZM409.809 203.029L409.477 201.76L410.941 201.34V202.404L410.727 202.014L411.918 202.355L411.869 202.922C411.335 203.007 410.648 203.042 409.809 203.029ZM414.008 202.941V192.902L415.57 193.186V202.941H414.008ZM412.895 203L412.943 202.414C413.119 202.342 413.308 202.277 413.51 202.219C413.718 202.154 413.946 202.092 414.193 202.033L414.008 202.756V201.418H415.57V202.756L415.414 202.111L416.723 202.395L416.674 203H412.895ZM414.008 194.27V193.049L414.154 193.391L412.836 192.873L412.875 192.482C413.487 192.261 414.19 192.134 414.984 192.102H415.57V193.781L414.008 194.27ZM422.992 203V202.023H425.355C426.247 202.023 426.931 201.691 427.406 201.027C427.888 200.357 428.129 199.4 428.129 198.156C428.129 195.591 427.032 194.309 424.838 194.309H422.992V193.332H424.926C426.56 193.332 427.813 193.736 428.686 194.543C429.564 195.35 430.004 196.503 430.004 198C430.004 199.016 429.805 199.898 429.408 200.646C429.011 201.395 428.451 201.975 427.729 202.385C427.006 202.795 426.15 203 425.16 203H422.992ZM422.152 202.854V193.469H423.793V202.854H422.152ZM421.059 203L421.107 202.375C421.446 202.238 421.859 202.111 422.348 201.994L422.152 202.727V201.359H423.793V202.727L423.627 202.072L424.926 202.355L424.877 203H421.059ZM424.887 193.332L424.838 193.957C424.499 194.094 424.086 194.221 423.598 194.338L423.793 193.605V194.973H422.152V193.605L422.318 194.26L421.02 193.977L421.068 193.332H424.887ZM434.916 203.156C433.738 203.156 432.829 202.837 432.191 202.199C431.553 201.561 431.234 200.65 431.234 199.465C431.234 198.26 431.547 197.307 432.172 196.604C432.797 195.894 433.64 195.539 434.701 195.539C435.652 195.539 436.384 195.839 436.898 196.438C437.413 197.03 437.67 197.883 437.67 198.996C437.67 199.094 437.667 199.191 437.66 199.289C437.654 199.387 437.644 199.481 437.631 199.572L435.99 199.26C435.99 198.264 435.87 197.544 435.629 197.102C435.395 196.659 435.01 196.438 434.477 196.438C433.435 196.438 432.914 197.261 432.914 198.908C432.914 200.985 433.744 202.023 435.404 202.023C436.055 202.023 436.736 201.89 437.445 201.623L437.377 202.541C437.071 202.736 436.703 202.889 436.273 203C435.85 203.104 435.398 203.156 434.916 203.156ZM431.869 199.572V198.771H437.475L437.631 199.572H431.869ZM441.225 203.156C440.32 203.156 439.568 202.948 438.969 202.531C438.917 202.29 438.878 202.014 438.852 201.701C438.826 201.382 438.822 201.057 438.842 200.725H439.604L440.404 202.404L439.77 201.818C440.264 202.137 440.801 202.297 441.381 202.297C442.221 202.297 442.641 201.962 442.641 201.291C442.641 200.796 442.302 200.438 441.625 200.217L440.824 199.963C439.561 199.566 438.93 198.843 438.93 197.795C438.93 197.111 439.171 196.568 439.652 196.164C440.134 195.76 440.779 195.559 441.586 195.559C442.315 195.559 442.969 195.708 443.549 196.008C443.66 196.503 443.705 197.046 443.686 197.639H442.885L442.084 195.959L443.041 196.877C442.481 196.571 441.944 196.418 441.43 196.418C440.714 196.418 440.355 196.727 440.355 197.346C440.355 197.847 440.717 198.215 441.439 198.449L442.24 198.703C442.872 198.905 443.34 199.182 443.646 199.533C443.952 199.885 444.105 200.321 444.105 200.842C444.105 201.551 443.845 202.115 443.324 202.531C442.803 202.948 442.104 203.156 441.225 203.156ZM446.332 202.941V196.408L447.895 196.223V202.941H446.332ZM446.332 198.029V196.779L446.566 197.209L445.219 196.564L445.258 196.154C445.544 196.024 445.876 195.913 446.254 195.822C446.632 195.731 447.035 195.666 447.465 195.627H447.895V197.18L446.332 198.029ZM445.277 203L445.326 202.414C445.495 202.336 445.678 202.268 445.873 202.209C446.075 202.144 446.293 202.085 446.527 202.033L446.332 202.756V201.418H447.895V202.756L447.729 202.111L448.988 202.395L448.939 203H445.277ZM446.967 194.367C446.648 194.367 446.394 194.276 446.205 194.094C446.023 193.911 445.932 193.664 445.932 193.352C445.932 193.039 446.023 192.792 446.205 192.609C446.394 192.427 446.648 192.336 446.967 192.336C447.286 192.336 447.536 192.427 447.719 192.609C447.908 192.792 448.002 193.039 448.002 193.352C448.002 193.664 447.908 193.911 447.719 194.094C447.536 194.276 447.286 194.367 446.967 194.367ZM452.924 200.705C452.045 200.705 451.345 200.474 450.824 200.012C450.303 199.549 450.043 198.924 450.043 198.137C450.043 197.342 450.303 196.714 450.824 196.252C451.352 195.783 452.058 195.549 452.943 195.549C453.458 195.549 453.93 195.66 454.359 195.881C454.796 196.102 455.147 196.405 455.414 196.789C455.681 197.173 455.814 197.616 455.814 198.117C455.814 198.905 455.554 199.533 455.033 200.002C454.512 200.471 453.809 200.705 452.924 200.705ZM453.051 199.885C453.852 199.885 454.252 199.357 454.252 198.303C454.252 197.014 453.77 196.369 452.807 196.369C452.006 196.369 451.605 196.9 451.605 197.961C451.605 198.579 451.729 199.055 451.977 199.387C452.23 199.719 452.589 199.885 453.051 199.885ZM456.596 196.711L454.359 196.594L452.943 195.549C453.249 195.549 453.487 195.568 453.656 195.607C453.826 195.64 453.982 195.676 454.125 195.715C454.268 195.754 454.454 195.773 454.682 195.773C454.844 195.773 455.098 195.764 455.443 195.744C455.795 195.718 456.212 195.682 456.693 195.637L456.596 196.711ZM452.807 206.418C451.863 206.418 451.107 206.239 450.541 205.881C449.981 205.529 449.701 205.054 449.701 204.455C449.701 203.719 450.173 203.12 451.117 202.658L451.664 202.971C451.26 203.29 451.059 203.677 451.059 204.133C451.059 204.589 451.238 204.937 451.596 205.178C451.954 205.419 452.465 205.539 453.129 205.539C453.832 205.539 454.389 205.409 454.799 205.148C455.215 204.895 455.424 204.549 455.424 204.113C455.424 203.658 455.118 203.43 454.506 203.43H452.279C451.713 203.43 451.277 203.299 450.971 203.039C450.665 202.785 450.512 202.421 450.512 201.945C450.512 201.164 450.948 200.555 451.82 200.119L452.416 200.217C451.934 200.575 451.693 200.962 451.693 201.379C451.693 201.822 451.999 202.043 452.611 202.043H454.838C455.489 202.043 455.987 202.183 456.332 202.463C456.684 202.736 456.859 203.133 456.859 203.654C456.859 204.188 456.684 204.663 456.332 205.08C455.987 205.497 455.508 205.822 454.896 206.057C454.291 206.298 453.594 206.418 452.807 206.418ZM462.992 202.941V198.02C462.992 197.128 462.562 196.682 461.703 196.682C461.026 196.682 460.342 196.955 459.652 197.502L459.457 197.014C459.854 196.545 460.31 196.184 460.824 195.93C461.339 195.676 461.879 195.549 462.445 195.549C463.122 195.549 463.643 195.738 464.008 196.115C464.372 196.486 464.555 197.02 464.555 197.717V202.941H462.992ZM458.578 202.941V196.418L460.141 196.828V202.941H458.578ZM457.582 203L457.631 202.414C457.82 202.323 458.008 202.248 458.197 202.189C458.386 202.131 458.575 202.079 458.764 202.033L458.578 202.756V201.418H460.141V202.756L459.984 202.111L461.176 202.395L461.127 203H457.582ZM462.172 203L462.221 202.375C462.357 202.303 462.504 202.242 462.66 202.189C462.816 202.131 462.989 202.079 463.178 202.033L462.992 202.756V201.418H464.555V202.756L464.398 202.111L465.59 202.395L465.541 203H462.172ZM458.578 198.029V196.779L458.812 197.209L457.465 196.564L457.504 196.154C457.79 196.024 458.122 195.913 458.5 195.822C458.878 195.731 459.281 195.666 459.711 195.627L460.082 197.18L458.578 198.029Z" fill="black"/>
<path d="M312.291 31.0938L308.228 16.9062L309.119 17.3125L307.134 16.9375L307.244 15.5312H313.9L313.791 16.9375C313.374 17.125 312.718 17.3021 311.822 17.4688L312.166 17L315.431 29.8125L315.884 31.0156C315.405 31.0677 314.832 31.099 314.166 31.1094C313.499 31.1302 312.874 31.125 312.291 31.0938ZM315.884 31.0156L313.9 30.7812L317.603 16.0469L319.744 16.0625L315.884 31.0156ZM321.337 31.0938L317.853 17.0312L317.603 16.0469C318.124 15.9948 318.686 15.9635 319.291 15.9531C319.895 15.9323 320.489 15.9323 321.072 15.9531L324.447 29.7969L324.931 31.0156C324.452 31.0677 323.879 31.099 323.212 31.1094C322.546 31.1302 321.921 31.125 321.337 31.0938ZM324.931 31.0156L322.916 30.7656L326.525 16.9219L326.947 17.3594L324.775 16.9375L324.884 15.5312H329.947L329.837 16.9062C329.64 17.0104 329.379 17.1146 329.056 17.2188C328.744 17.3229 328.39 17.4167 327.994 17.5L328.947 16.9375L324.931 31.0156ZM340.881 31.2812C339.277 31.2812 337.881 30.9531 336.694 30.2969C335.506 29.6406 334.59 28.7135 333.944 27.5156C333.298 26.3177 332.975 24.9062 332.975 23.2812C332.975 21.6458 333.298 20.2292 333.944 19.0312C334.59 17.8229 335.506 16.8906 336.694 16.2344C337.881 15.5781 339.282 15.25 340.897 15.25C342.511 15.25 343.912 15.5781 345.1 16.2344C346.287 16.8906 347.204 17.8177 347.85 19.0156C348.496 20.2031 348.819 21.6146 348.819 23.25C348.819 24.8854 348.496 26.3073 347.85 27.5156C347.204 28.7135 346.287 29.6406 345.1 30.2969C343.912 30.9531 342.506 31.2812 340.881 31.2812ZM341.272 29.2812C343.47 29.2812 344.569 27.4792 344.569 23.875C344.569 21.75 344.22 20.1146 343.522 18.9688C342.824 17.8229 341.824 17.25 340.522 17.25C338.324 17.25 337.225 19.0521 337.225 22.6562C337.225 24.7812 337.574 26.4167 338.272 27.5625C338.98 28.7083 339.98 29.2812 341.272 29.2812ZM363.894 31L359.097 24.6562L362.831 23.6094L367.581 29.6094L366.175 29.1406L368.269 29.5312L368.159 31H363.894ZM359.597 25.25C358.555 25.25 357.441 25.1875 356.253 25.0625L356.487 23.1875C357.665 23.3125 358.795 23.375 359.878 23.375C361.576 23.375 362.425 22.3854 362.425 20.4062C362.425 18.5104 361.618 17.5625 360.003 17.5625H356.566V15.5312H360.144C362.206 15.5312 363.79 15.9219 364.894 16.7031C365.998 17.474 366.55 18.5885 366.55 20.0469C366.55 21.3177 366.128 22.3646 365.284 23.1875C364.451 24 363.248 24.526 361.675 24.7656L360.691 25.1875C360.524 25.2083 360.347 25.224 360.159 25.2344C359.972 25.2448 359.784 25.25 359.597 25.25ZM354.894 30.7656V15.75H358.644V30.7656H354.894ZM353.425 31L353.534 29.625C354.034 29.4062 354.685 29.2031 355.487 29.0156L354.894 30.6094V28.1562H358.644V30.6094L358.128 29.1406L360.05 29.5938L359.941 31H353.425ZM360.112 15.5312L360.003 16.9062C359.503 17.125 358.852 17.3281 358.05 17.5156L358.644 15.9219V18.375H354.894V15.9219L355.441 17.3906L353.362 16.9375L353.472 15.5312H360.112ZM382.937 31L377.844 23.9531V22.7812L383.359 16.7188L383.25 17.3594L381.062 16.9375L381.172 15.5312H387.094L386.984 16.9062C386.786 17.0104 386.526 17.1146 386.203 17.2188C385.891 17.3229 385.536 17.4167 385.141 17.5L386.375 16.8125L380.203 23.4375L381.141 22.2344L386.75 29.6094L385.344 29.1406L387.437 29.5312L387.328 31H382.937ZM373.656 30.7656V15.7812H377.406V30.7656H373.656ZM375.641 24.4062V22.375H379.734V24.4062H375.641ZM372.187 31L372.297 29.625C372.797 29.4062 373.448 29.2031 374.25 29.0156L373.656 30.6094V28.1562H377.406V30.6094L376.859 29.1406L378.937 29.5938L378.828 31H372.187ZM378.875 15.5312L378.766 16.9062C378.266 17.125 377.615 17.3281 376.812 17.5156L377.406 15.9219V18.375H373.656V15.9219L374.203 17.3906L372.125 16.9375L372.234 15.5312H378.875ZM403.494 30.7656V15.75H407.244V30.7656H403.494ZM398.478 20.6094C398.332 18.8594 398.421 17.1667 398.744 15.5312L401.775 16.8906L400.009 20.6094H398.478ZM399.009 17.5625L398.744 15.5312H411.994L411.447 17.5625H399.009ZM410.728 20.6094L408.962 16.8906L411.994 15.5312C412.317 17.1667 412.405 18.8594 412.259 20.6094H410.728ZM401.775 31L401.884 29.625C402.186 29.5 402.525 29.3906 402.9 29.2969C403.285 29.2031 403.681 29.125 404.087 29.0625L403.494 30.6094V28.1562H407.244V30.6094L406.697 29.1562L409.025 29.5938L408.916 31H401.775ZM421.366 25.625L416.834 16.9219L417.787 17.3125L415.803 16.9375L415.912 15.5312H422.6L422.491 16.9375C422.074 17.125 421.418 17.3021 420.522 17.4688L420.803 17.0781L424.553 24.5469L425.084 25.5469L421.366 25.625ZM422.881 25.5312L427.116 16.9219L427.459 17.3594L425.272 16.9375L425.381 15.5312H430.506L430.397 16.9062C430.199 17.0104 429.939 17.1146 429.616 17.2188C429.303 17.3229 428.949 17.4167 428.553 17.5L429.6 16.9219L425.084 25.5469L422.881 25.5312ZM421.35 30.7656V24.5312H425.1V30.7656H421.35ZM419.631 31L419.741 29.625C420.043 29.5 420.381 29.3906 420.756 29.2969C421.142 29.2031 421.537 29.125 421.944 29.0625L421.35 30.6094V28.1562H425.1V30.6094L424.553 29.1562L426.881 29.5938L426.772 31H419.631ZM441.034 26C439.993 26 438.878 25.9375 437.691 25.8125L437.925 23.875C439.102 24 440.232 24.0625 441.316 24.0625C442.941 24.0625 443.753 22.9688 443.753 20.7812C443.753 18.6354 442.982 17.5625 441.441 17.5625H437.691V15.5312H441.581C443.612 15.5312 445.175 15.9531 446.269 16.7969C447.362 17.6406 447.909 18.8542 447.909 20.4375C447.909 22.1354 447.29 23.4896 446.05 24.5C444.81 25.5 443.139 26 441.034 26ZM436.019 30.7656V15.75H439.769V30.7656H436.019ZM434.55 31L434.659 29.625C435.159 29.4062 435.81 29.2031 436.612 29.0156L436.019 30.6094V28.1562H439.769V30.6094L439.222 29.1719L441.769 29.5938L441.659 31H434.55ZM441.237 15.5312L441.128 16.9062C440.628 17.125 439.977 17.3281 439.175 17.5156L439.769 15.9219V18.375H436.019V15.9219L436.566 17.3906L434.487 16.9375L434.597 15.5312H441.237ZM453.688 30.7656V15.75H457.438V30.7656H453.688ZM455.672 31V28.9688H464.266L464.641 31H455.672ZM464.641 31L461.594 29.7031L463.672 26.0781H465.344C465.365 26.7865 465.312 27.5677 465.188 28.4219C465.073 29.276 464.891 30.1354 464.641 31ZM455.422 24.125V22H462.484L462.328 24.125H455.422ZM454.766 17.5625V15.5312H464.469L464.172 17.5625H454.766ZM463.109 20.1719L461.547 16.8906L464.469 15.5312C464.635 16.2812 464.745 17.0573 464.797 17.8594C464.859 18.6615 464.865 19.4323 464.812 20.1719H463.109ZM452.219 31L452.328 29.625C452.828 29.4062 453.479 29.2031 454.281 29.0156L453.688 30.6094V28.1562H457.438V30.6094L456.891 29.1406L458.969 29.5938L458.859 31H452.219ZM458.906 15.5312L458.797 16.9062C458.297 17.125 457.646 17.3281 456.844 17.5156L457.438 15.9219V18.375H453.688V15.9219L454.234 17.3906L452.156 16.9375L452.266 15.5312H458.906Z" fill="black"/>
</svg>
